<?xml version="1.0" encoding="UTF-8" standalone="no"?>
<!-- Created with Inkscape (http://www.inkscape.org/) -->

<svg
   width="200mm"
   height="200mm"
   viewBox="0 0 200 200"
   version="1.1"
   id="svg1"
   inkscape:version="1.3.2 (091e20ef0f, 2023-11-25)"
   sodipodi:docname="ooragan_logo.svg"
   xmlns:inkscape="http://www.inkscape.org/namespaces/inkscape"
   xmlns:sodipodi="http://sodipodi.sourceforge.net/DTD/sodipodi-0.dtd"
   xmlns="http://www.w3.org/2000/svg"
   xmlns:svg="http://www.w3.org/2000/svg">
  <sodipodi:namedview
     id="namedview1"
     pagecolor="#ffffff"
     bordercolor="#000000"
     borderopacity="0.25"
     inkscape:showpageshadow="2"
     inkscape:pageopacity="0.0"
     inkscape:pagecheckerboard="0"
     inkscape:deskcolor="#d1d1d1"
     inkscape:document-units="mm"
     inkscape:zoom="1.066351"
     inkscape:cx="395.74211"
     inkscape:cy="379.33101"
     inkscape:window-width="1920"
     inkscape:window-height="1011"
     inkscape:window-x="0"
     inkscape:window-y="0"
     inkscape:window-maximized="1"
     inkscape:current-layer="layer1"
     showgrid="false" />
  <defs
     id="defs1" />
  <g
     inkscape:label="Layer 1"
     inkscape:groupmode="layer"
     id="layer1">
    <path
       id="path1"
       style="color:#000000;fill:#656565;-inkscape-stroke:none;fill-opacity:1"
       inkscape:label="external path"
       d="M 30.591801 61.474547 L 30.591801 64.042894 L 158.99795 64.042894 C 165.35324 64.000396 169.2629 69.076887 169.48237 74.115268 C 169.59211 76.634459 168.83797 79.22285 167.07219 81.216864 C 165.3064 83.210877 162.54082 84.515512 159.0448 84.589672 L 159.02718 84.589672 L 56.275274 84.589672 C 53.638112 84.597754 51.962633 85.471017 50.851472 86.710741 C 49.739673 87.951179 49.192183 89.655227 49.244153 91.406163 C 49.296123 93.157099 49.954721 94.909294 51.12096 96.177667 C 52.287199 97.446041 53.924003 98.290324 56.273272 98.287124 L 133.34571 98.287124 L 133.36533 98.289126 C 136.57813 98.36351 139.19646 99.70485 140.9022 101.67395 C 142.60794 103.64303 143.43863 106.17064 143.45493 108.67584 C 143.47123 111.18103 142.66905 113.71122 140.95105 115.6525 C 139.23306 117.59379 136.57259 118.8569 133.31248 118.8339 L 82.021614 118.8339 C 79.379213 118.92962 77.63943 119.85775 76.484491 121.13877 C 75.329552 122.41979 74.76033 124.12381 74.791079 125.8418 C 74.85258 129.27776 77.009492 132.56196 81.949136 132.53336 L 81.95314 132.53135 L 105.07427 132.53135 L 105.07427 135.95702 L 81.968757 135.95702 C 75.371647 135.99522 71.457087 130.93611 71.367017 125.90426 C 71.321984 123.38834 72.155283 120.82658 73.941371 118.84551 C 75.727459 116.86446 78.467166 115.53445 81.89628 115.41024 L 81.927513 115.41024 L 133.3321 115.41024 L 133.3381 115.41024 C 135.7451 115.42725 137.30579 114.60429 138.38671 113.38287 C 139.46762 112.16146 140.04266 110.45226 140.03126 108.69906 C 140.01985 106.94586 139.41965 105.19388 138.31263 103.91594 C 137.20741 102.64008 135.632 101.76959 133.29486 101.71279 L 56.275674 101.71279 C 53.051594 101.71669 50.380719 100.42921 48.601465 98.494145 C 46.821832 96.558658 45.897513 94.035322 45.822493 91.507872 C 45.747475 88.980423 46.530165 86.401337 48.300744 84.425897 C 50.071323 82.450457 52.829227 81.17521 56.27167 81.16601 L 56.273672 81.16601 L 158.97273 81.16601 C 161.69018 81.108367 163.39867 80.197776 164.50785 78.945234 C 165.61702 77.692693 166.13841 76.00298 166.06271 74.265428 C 165.91134 70.790327 163.60787 67.437878 159.01958 67.468558 L 159.01357 67.468558 L 30.591801 67.468558 L 30.591801 70.035304 L 159.02358 70.035304 L 159.03719 70.035304 C 162.30024 70.013484 163.39566 72.074506 163.49596 74.377148 C 163.54616 75.528469 163.20251 76.545775 162.58579 77.242213 C 161.96906 77.938651 161.05141 78.552406 158.91787 78.597662 L 56.269668 78.597662 L 56.263661 78.597662 C 52.219226 78.608522 48.653363 80.184173 46.388699 82.710862 C 44.124034 85.237553 43.161441 88.47412 43.253745 91.583953 C 43.346045 94.693787 44.471364 97.796586 46.711043 100.2324 C 48.949572 102.66697 52.395906 104.28483 56.275274 104.28114 L 133.2364 104.28114 C 134.9192 104.32254 135.71459 104.84004 136.37095 105.59774 C 137.02895 106.35733 137.45518 107.52548 137.46292 108.71468 C 137.47092 109.90389 137.06777 110.99834 136.46465 111.67985 C 135.86153 112.36136 135.12247 112.85438 133.35532 112.84189 L 133.33971 112.84189 L 81.881063 112.84189 L 81.802579 112.84389 C 77.783429 112.98948 74.294781 114.62078 72.035332 117.12688 C 69.775883 119.63298 68.742924 122.83473 68.79867 125.94911 C 68.910161 132.17788 74.144165 138.57076 81.984374 138.52536 L 107.64262 138.52536 L 107.64262 129.96301 L 81.945132 129.96301 L 81.933519 129.96301 C 78.236975 129.98441 77.399505 128.036 77.359427 125.79695 C 77.339387 124.67742 77.710954 123.61539 78.392532 122.85941 C 79.072708 122.10498 80.059926 121.47872 82.103702 121.40225 L 133.29486 121.40225 C 137.19482 121.42985 140.67931 119.83471 142.87511 117.35352 C 145.0709 114.87232 146.04324 111.72941 146.02327 108.66022 C 146.00327 105.59102 144.99664 102.4796 142.84187 99.992147 C 140.68709 97.504693 137.28859 95.810258 133.4238 95.720778 L 133.37494 95.718776 L 56.27167 95.718776 L 56.269668 95.718776 C 54.577202 95.721076 53.717975 95.205443 53.011783 94.437406 C 52.30559 93.669368 51.847184 92.498632 51.8125 91.330082 C 51.77782 90.161533 52.145803 89.114961 52.763517 88.425775 C 53.381232 87.73659 54.249494 87.163492 56.287287 87.158019 L 159.05481 87.158019 L 159.09966 87.156017 C 163.17959 87.069477 166.73601 85.468001 168.99424 82.917884 C 171.25248 80.367766 172.18398 77.10937 172.04871 74.003949 C 171.77817 67.793107 166.66087 61.423188 158.98033 61.474547 L 30.591801 61.474547 z "
       transform="matrix(1.2905289,0,0,1.2905289,-30.710113,-13.782091)" />
    <path
       d="m 32.266732,47.328266 q 0,3.307287 2.090205,5.9002 2.116664,2.592914 5.371035,3.28083 v 1.296456 h -8.704781 v 1.40229 h 10.107071 v -3.88937 l -0.608541,-0.07937 q -2.936871,-0.370416 -4.894785,-2.64583 -1.957915,-2.301872 -1.957915,-5.265201 0,-3.333746 2.328331,-5.662077 2.32833,-2.354788 5.662076,-2.354788 3.360204,0 5.688534,2.32833 2.328331,2.328331 2.328331,5.688535 0,2.963329 -1.957914,5.265201 -1.957915,2.275414 -4.894786,2.64583 l -0.608541,0.07937 v 3.88937 h 10.107071 v -1.40229 h -8.704781 v -1.296456 q 3.254371,-0.687916 5.344577,-3.28083 2.116664,-2.592913 2.116664,-5.9002 0,-3.942287 -2.751664,-6.667492 -2.725204,-2.751663 -6.667491,-2.751663 -3.915828,0 -6.667492,2.751663 -2.725204,2.725205 -2.725204,6.667492 z m 21.325382,0 q 0,3.307287 2.090205,5.9002 2.116664,2.592914 5.371035,3.28083 v 1.296456 h -8.70478 v 1.40229 h 10.10707 v -3.88937 l -0.608541,-0.07937 q -2.936871,-0.370416 -4.894785,-2.64583 -1.957914,-2.301872 -1.957914,-5.265201 0,-3.333746 2.32833,-5.662077 2.32833,-2.354788 5.662076,-2.354788 3.360204,0 5.688535,2.32833 2.32833,2.328331 2.32833,5.688535 0,2.963329 -1.957914,5.265201 -1.957914,2.275414 -4.894786,2.64583 l -0.608541,0.07937 v 3.88937 h 10.107071 v -1.40229 h -8.704781 v -1.296456 q 3.254371,-0.687916 5.344577,-3.28083 2.116664,-2.592913 2.116664,-5.9002 0,-3.942287 -2.751663,-6.667492 -2.725205,-2.751663 -6.667492,-2.751663 -3.915828,0 -6.667491,2.751663 -2.725205,2.725205 -2.725205,6.667492 z m 34.660365,10.477486 -8.493114,-8.493114 h 3.280829 q 1.984372,0 3.545412,-1.137707 2.090206,-1.534581 2.090206,-4.497911 0,-2.963329 -2.090206,-4.497911 -1.56104,-1.137707 -3.545412,-1.137707 h -8.122698 v 19.235184 q 0,0.502708 -0.555624,0.529166 l -0.687916,0.02646 v 1.375831 h 0.714374 q 0.846666,0 1.375832,-0.529166 0.555624,-0.555624 0.555624,-1.40229 V 39.443692 h 6.720408 q 1.111249,0 2.196039,0.555625 2.037289,1.058332 2.037289,3.677703 0,2.619372 -2.037289,3.677704 -1.137707,0.582082 -2.196039,0.582082 h -5.371035 v 1.269999 l 10.027696,10.001237 h 2.222497 v -1.40229 z M 100.55561,37.909111 90.554373,57.805752 h -0.661457 v 1.40229 h 1.534581 l 9.498533,-18.997059 3.83645,7.672907 h -5.079993 q -0.873124,0 -1.40229,0.529166 -0.529166,0.529166 -0.529166,1.40229 0,0.846665 0.529166,1.40229 0.555624,0.555624 1.40229,0.555624 h 7.011453 l 3.73062,7.434782 h 1.53458 v -1.40229 h -0.68792 l -3.70416,-7.434782 h -7.884573 q -0.555625,0 -0.555625,-0.555624 0,-0.529166 0.555625,-0.529166 h 7.328953 l -5.63562,-11.377069 z m 12.67355,5.767909 v 7.408324 q 0,2.96333 2.09021,4.497911 1.5875,1.164165 3.54541,1.164165 h 6.16479 q 0.55562,0 0.55562,0.529166 0,0.529166 -0.55562,0.529166 h -13.04395 v 1.40229 h 13.04395 q 0.87312,0 1.40229,-0.529166 0.52916,-0.529166 0.52916,-1.40229 0,-0.873124 -0.52916,-1.40229 -0.52917,-0.529166 -1.40229,-0.529166 h -6.16479 q -0.74083,0 -1.5875,-0.291041 -2.67228,-0.92604 -2.67228,-3.968745 V 43.67702 q 0,-2.619371 2.06374,-3.677703 1.08479,-0.555625 2.19604,-0.555625 h 4.9477 q 1.11125,0 2.19604,0.555625 2.03729,1.058332 2.03729,3.677703 v 1.24354 q 0,0.529166 -0.52916,0.529166 -0.55563,0 -0.55563,-0.529166 v -1.24354 q 0,-1.40229 -0.87312,-2.275414 -0.87313,-0.899582 -2.27542,-0.899582 h -4.9477 q -1.37583,0 -2.27541,0.899582 -0.89958,0.899583 -0.89958,2.275414 v 7.408324 q 0,1.375832 0.89958,2.275414 0.89958,0.899582 2.27541,0.899582 h 6.16479 q 0.87312,0 1.40229,-0.529166 0.52916,-0.529166 0.52916,-1.40229 0,-0.873124 -0.52916,-1.40229 -0.52917,-0.529166 -1.40229,-0.529166 h -3.70417 q -0.52916,0 -0.52916,-0.529166 0,-0.555624 0.55562,-0.555624 h 3.67771 q 0.87312,0 1.64041,0.423333 1.37583,0.767291 1.37583,2.592913 v 4.947702 q 0,0.846666 0.52917,1.40229 0.55562,0.529166 1.40229,0.529166 h 0.71437 v -1.40229 h -0.71437 q -0.52917,0 -0.52917,-0.529166 v -4.947702 q 0,-1.957914 -1.24354,-3.174996 -1.21708,-1.217082 -3.17499,-1.217082 h -3.70417 q -0.84666,0 -1.40229,0.555625 -0.52916,0.529166 -0.52916,1.375831 0,0.820208 0.55562,1.375832 0.55563,0.555624 1.37583,0.555624 h 3.70417 q 0.55562,0 0.55562,0.529166 0,0.529166 -0.55562,0.529166 h -6.16479 q -0.82021,0 -1.29645,-0.476249 -0.47625,-0.47625 -0.47625,-1.296457 V 43.67702 q 0,-0.820207 0.47625,-1.296456 0.47624,-0.47625 1.29645,-0.47625 h 4.9477 q 0.79375,0 1.27,0.502708 0.50271,0.476249 0.50271,1.269998 v 1.24354 q 0,0.846666 0.52917,1.40229 0.55562,0.529166 1.40229,0.529166 0.8202,0 1.37583,-0.555624 0.55562,-0.555624 0.55562,-1.375832 v -1.24354 q 0,-2.963329 -2.0902,-4.497911 -1.56104,-1.137707 -3.54542,-1.137707 h -4.9477 q -1.98437,0 -3.54541,1.137707 -2.09021,1.534582 -2.09021,4.497911 z m 28.0987,-5.767909 -10.00124,19.896641 h -0.66145 v 1.40229 h 1.53458 l 9.49853,-18.997059 3.83645,7.672907 h -5.07999 q -0.87313,0 -1.40229,0.529166 -0.52917,0.529166 -0.52917,1.40229 0,0.846665 0.52917,1.40229 0.55562,0.555624 1.40229,0.555624 h 7.01145 l 3.73062,7.434782 h 1.53458 v -1.40229 h -0.68792 l -3.70416,-7.434782 h -7.88457 q -0.55563,0 -0.55563,-0.555624 0,-0.529166 0.55563,-0.529166 h 7.32895 l -5.63562,-11.377069 z m 22.51604,2.116664 v 15.531022 l -8.7577,-17.515395 h -1.08479 v 19.208726 q 0,0.555624 -0.55562,0.555624 h -0.68792 v 1.375832 h 0.71438 q 0.84666,0 1.37583,-0.529166 0.52916,-0.555624 0.52916,-1.40229 V 41.719106 l 8.78416,17.488936 h 1.08479 V 40.025775 q 0,-0.555624 0.52917,-0.555624 0.55562,0 0.55562,0.555624 v 17.224353 q 0,1.719789 1.905,1.931456 l 0.74083,0.07937 -0.0265,-1.455207 h -0.68791 q -0.55563,0 -0.55563,-0.555624 V 40.025775 q 0,-0.873124 -0.52917,-1.40229 -0.52916,-0.529166 -1.40228,-0.529166 -0.84667,0 -1.40229,0.555624 -0.52917,0.529166 -0.52917,1.375832 z"
       id="text1"
       style="font-size:26.4583px;font-family:Neon;-inkscape-font-specification:Neon;stroke:#656565;stroke-width:0.38743805;fill:#656565;fill-opacity:1;stroke-dasharray:none;stroke-opacity:1"
       aria-label="OORAGAN"
       transform="matrix(1.2905289,0,0,1.2905289,-30.710113,-13.782091)"
       inkscape:label="ooragan" />
  </g>
</svg>
