<?xml version="1.0" encoding="UTF-8" standalone="no"?>
<!-- Created with Inkscape (http://www.inkscape.org/) -->

<svg
   width="1200"
   height="630"
   viewBox="0 0 317.5 166.6875"
   version="1.1"
   id="svg1"
   xml:space="preserve"
   inkscape:version="1.3.2 (091e20ef0f, 2023-11-25)"
   sodipodi:docname="ooragan_opengraph.svg"
   inkscape:export-filename="docs/_static/icons/ooragan_opengraph.png"
   inkscape:export-xdpi="96"
   inkscape:export-ydpi="96"
   xmlns:inkscape="http://www.inkscape.org/namespaces/inkscape"
   xmlns:sodipodi="http://sodipodi.sourceforge.net/DTD/sodipodi-0.dtd"
   xmlns="http://www.w3.org/2000/svg"
   xmlns:svg="http://www.w3.org/2000/svg"><sodipodi:namedview
     id="namedview1"
     pagecolor="#e6e6e6"
     bordercolor="#000000"
     borderopacity="0.25"
     inkscape:showpageshadow="2"
     inkscape:pageopacity="0.0"
     inkscape:pagecheckerboard="0"
     inkscape:deskcolor="#d1d1d1"
     inkscape:document-units="mm"
     inkscape:zoom="0.71713667"
     inkscape:cx="528.49062"
     inkscape:cy="449.70508"
     inkscape:window-width="1920"
     inkscape:window-height="1011"
     inkscape:window-x="0"
     inkscape:window-y="0"
     inkscape:window-maximized="1"
     inkscape:current-layer="layer1"
     showgrid="false"
     inkscape:export-bgcolor="#e6e6e6ff" /><defs
     id="defs1" /><g
     inkscape:label="Layer 1"
     inkscape:groupmode="layer"
     id="layer1"><g
       inkscape:label="Layer 1"
       id="layer1-5"
       transform="matrix(0.42431013,0,0,0.42431013,214.09884,16.793946)"><path
         id="path1"
         style="color:#000000;fill:#656565;fill-opacity:1;stroke-width:1.41603;-inkscape-stroke:none"
         inkscape:label="external path"
         d="m -0.30669957,33.619272 v 3.636847 H 181.51975 c 8.99927,-0.06018 14.53545,7.128266 14.84622,14.262744 0.15539,3.567241 -0.91248,7.23247 -3.41287,10.056046 -2.50041,2.823574 -6.41655,4.670971 -11.367,4.775984 H 181.5612 36.061813 c -3.734291,0.01144 -6.106813,1.248007 -7.680245,3.003489 -1.574337,1.756492 -2.349598,4.169469 -2.276006,6.64884 0.07359,2.479371 1.006183,4.960524 2.657608,6.756574 1.651424,1.796051 3.969182,2.991577 7.295807,2.987047 H 145.19556 l 0.0278,0.0029 c 4.54941,0.105324 8.25703,2.004702 10.67241,4.793 2.41537,2.788267 3.59164,6.367429 3.61473,9.914857 0.023,3.54742 -1.11283,7.13023 -3.54556,9.87914 -2.43272,2.74892 -6.20001,4.53751 -10.81642,4.50495 H 72.519258 c -3.741709,0.13554 -6.205287,1.4498 -7.840711,3.26375 -1.635424,1.81396 -2.441457,4.2269 -2.397916,6.65962 0.08709,4.8654 3.141331,9.51592 10.135997,9.47542 l 0.0057,-0.003 h 32.740122 v 4.85084 H 72.444411 c -9.34168,0.0541 -14.884799,-7.10974 -15.012341,-14.23497 -0.06377,-3.5626 1.116205,-7.19013 3.645353,-9.99538 2.529147,-2.80521 6.408644,-4.68854 11.264359,-4.86442 h 0.04423 72.790228 0.009 c 3.40837,0.0241 5.61835,-1.14125 7.14895,-2.87082 1.53061,-1.72955 2.34488,-4.14982 2.32873,-6.63239 -0.0161,-2.482584 -0.86605,-4.963434 -2.43362,-6.773031 -1.56502,-1.806651 -3.79584,-3.039287 -7.1053,-3.119717 H 36.062335 c -4.565381,0.0055 -8.347411,-1.817583 -10.86688,-4.557686 -2.520007,-2.7407 -3.828867,-6.31381 -3.935097,-9.892745 -0.106224,-3.578934 1.002082,-7.230987 3.509267,-10.028261 2.507187,-2.797275 6.412451,-4.603058 11.28704,-4.616086 h 0.0029 145.424555 c 3.84798,-0.08162 6.26724,-1.371044 7.83787,-3.144676 1.57062,-1.773631 2.30891,-4.166308 2.20172,-6.626727 -0.21434,-4.920834 -3.47611,-9.66799 -9.97325,-9.624545 h -0.009 -181.84857726 v 3.634579 H 181.55605 h 0.0193 c 4.62057,-0.0309 6.17171,2.887563 6.31373,6.148164 0.0711,1.630301 -0.41553,3.070832 -1.28882,4.057007 -0.87331,0.986174 -2.17273,1.855268 -5.19387,1.919351 h -145.352537 -0.0086 c -5.727026,0.01538 -10.776382,2.246541 -13.983205,5.824398 -3.206824,3.577861 -4.569881,8.160924 -4.439177,12.564529 0.1307,4.403606 1.724181,8.79725 4.895625,12.246427 3.169816,3.447415 8.049914,5.738347 13.543201,5.733122 H 145.04073 c 2.38289,0.05863 3.50919,0.791416 4.43861,1.864339 0.93175,1.0756 1.5353,2.72973 1.54626,4.413668 0.0113,1.68396 -0.55955,3.23373 -1.41358,4.19876 -0.85403,0.96504 -1.90056,1.66317 -4.40289,1.64548 h -0.0222 -72.86678 l -0.111136,0.003 c -5.691221,0.20616 -10.631239,2.51613 -13.830677,6.06483 -3.199439,3.5487 -4.662135,8.08247 -4.583198,12.49251 0.157875,8.8201 7.569361,17.87259 18.671301,17.8083 h 36.33275 v -12.12451 h -36.388317 -0.01645 c -5.234402,0.0303 -6.420283,-2.7287 -6.477033,-5.89925 -0.02837,-1.58529 0.49777,-3.08915 1.462904,-4.15963 0.963146,-1.0683 2.361073,-1.95509 5.255113,-2.06338 h 72.488013 c 5.52246,0.0391 10.45658,-2.21968 13.56589,-5.7331 3.10929,-3.51346 4.48616,-7.9639 4.45788,-12.30995 -0.0283,-4.346072 -1.45374,-8.751925 -4.50494,-12.274223 -3.05123,-3.5223 -7.86359,-5.921663 -13.33623,-6.04837 l -0.0692,-0.0029 h -109.180249 -0.0029 c -2.396576,0.0033 -3.613264,-0.726893 -4.613251,-1.814453 -0.999987,-1.087562 -1.649102,-2.745355 -1.698216,-4.400052 -0.04911,-1.654695 0.471966,-3.136669 1.346665,-4.112574 0.874701,-0.975904 2.104182,-1.787426 4.989751,-1.795176 h 145.52161 l 0.0635,-0.0029 c 5.77729,-0.122542 10.81328,-2.390274 14.01099,-6.001307 3.19773,-3.611033 4.51676,-8.225007 4.32521,-12.622363 -0.38309,-8.794716 -7.62933,-17.814687 -18.50516,-17.741961 z" /><path
         d="m 2.1043992,13.588115 q 0,4.682304 3.0213675,8.35323 3.0596135,3.67093 7.7637693,4.644848 v 1.835463 H 0.30687503 v 1.985298 H 14.91653 V 24.900563 L 14.036891,24.788194 Q 9.791678,24.263777 6.9615357,21.04235 4.131392,17.783467 4.131392,13.588121 q 0,-4.7197636 3.3655757,-8.0161073 3.3655743,-3.3338004 8.1844663,-3.3338004 4.857136,0 8.222711,3.2963424 3.365575,3.2963437 3.365575,8.0535653 0,4.195346 -2.830142,7.454229 -2.830144,3.221427 -7.075357,3.745844 l -0.879639,0.112369 v 5.506391 h 14.609655 v -1.985298 h -12.58266 v -1.835463 q 4.704155,-0.973918 7.725524,-4.644848 3.059613,-3.670926 3.059613,-8.35323 0,-5.581309 -3.977499,-9.4395286 -3.93925,-3.89567772 -9.637781,-3.89567772 -5.660285,0 -9.6377836,3.89567772 Q 2.1043992,8.006806 2.1043992,13.588115 Z m 30.8255958,0 q 0,4.682304 3.021366,8.35323 3.059614,3.67093 7.76377,4.644848 v 1.835463 H 31.132472 v 1.985298 h 14.609654 v -5.506391 l -0.879639,-0.112369 q -4.245215,-0.524417 -7.075356,-3.745844 -2.830142,-3.258883 -2.830142,-7.454229 0,-4.7197636 3.365574,-8.0161073 3.365574,-3.3338004 8.184466,-3.3338004 4.857136,0 8.222713,3.2963424 3.365574,3.2963437 3.365574,8.0535653 0,4.195346 -2.830143,7.454229 -2.830142,3.221427 -7.075356,3.745844 l -0.87964,0.112369 v 5.506391 H 61.919832 V 28.421656 H 49.337171 v -1.835463 q 4.704156,-0.973918 7.725526,-4.644848 3.059613,-3.670926 3.059613,-8.35323 0,-5.581309 -3.977498,-9.4395286 -3.939252,-3.89567772 -9.637783,-3.89567772 -5.660284,0 -9.637782,3.89567772 -3.939252,3.8582196 -3.939252,9.4395286 z M 83.031155,28.421656 70.754456,16.397497 h 4.742401 q 2.868386,0 5.124851,-1.610713 3.021371,-2.17259 3.021371,-6.3679355 0,-4.1953447 -3.021371,-6.3679352 Q 78.365243,0.44020018 75.496857,0.44020018 H 63.755589 V 27.672487 q 0,0.711711 -0.803148,0.749169 l -0.994373,0.03746 v 1.947838 h 1.032618 q 1.223847,0 1.98875,-0.749169 0.803148,-0.786628 0.803148,-1.985298 V 2.4254977 h 9.714273 q 1.606298,0 3.174349,0.7866284 2.944878,1.4983376 2.944878,5.2067224 0,3.7083865 -2.944878,5.2067245 -1.644542,0.824084 -3.174349,0.824084 h -7.76377 v 1.798007 l 14.49492,14.15929 h 3.212594 V 28.421656 Z M 100.81519,0.25290868 86.358517,28.421656 h -0.956129 v 1.985298 h 2.218219 l 13.730023,-26.895161 5.54554,10.862949 h -7.343069 q -1.262091,0 -2.026994,0.749169 -0.764904,0.749169 -0.764904,1.985296 0,1.19867 0.764904,1.985299 0.803148,0.786626 2.026994,0.786626 h 10.134979 l 5.39256,10.525822 h 2.21822 v -1.985298 h -0.99438 L 110.95016,17.895834 H 99.553101 q -0.80315,0 -0.80315,-0.786627 0,-0.749169 0.80315,-0.749169 H 110.14701 L 102.00079,0.25290868 Z M 119.13466,8.4188485 V 18.907212 q 0,4.195346 3.02138,6.367936 2.29471,1.64817 5.12484,1.64817 h 8.91114 q 0.80314,0 0.80314,0.749169 0,0.749169 -0.80314,0.749169 h -18.85488 v 1.985298 h 18.85488 q 1.26209,0 2.02699,-0.749169 0.7649,-0.749168 0.7649,-1.985298 0,-1.236129 -0.7649,-1.985298 -0.7649,-0.749168 -2.02699,-0.749168 h -8.91114 q -1.07085,0 -2.29471,-0.412042 -3.86275,-1.311046 -3.86275,-5.618767 V 8.4188485 q 0,-3.7083848 2.98312,-5.2067224 1.56804,-0.7866284 3.17434,-0.7866284 h 7.15185 q 1.60629,0 3.17434,0.7866284 2.94489,1.4983376 2.94489,5.2067224 v 1.7605465 q 0,0.749169 -0.76489,0.749169 -0.80316,0 -0.80316,-0.749169 V 8.4188485 q 0,-1.9852975 -1.2621,-3.2214264 -1.26209,-1.2735866 -3.28908,-1.2735866 h -7.15185 q -1.98874,0 -3.28907,1.2735866 -1.30034,1.2735883 -1.30034,3.2214264 V 18.907212 q 0,1.947839 1.30034,3.221426 1.30033,1.273588 3.28907,1.273588 h 8.91114 q 1.26209,0 2.02699,-0.749169 0.7649,-0.749169 0.7649,-1.985298 0,-1.236128 -0.7649,-1.985297 -0.7649,-0.749169 -2.02699,-0.749169 h -5.35434 q -0.76489,0 -0.76489,-0.749169 0,-0.786627 0.80315,-0.786627 h 5.31608 q 1.26209,0 2.37119,0.599336 1.98875,1.086295 1.98875,3.670926 v 7.004728 q 0,1.198671 0.76491,1.985298 0.80315,0.749169 2.02699,0.749169 h 1.03261 v -1.985298 h -1.03261 q -0.76491,0 -0.76491,-0.749169 v -7.004728 q 0,-2.771925 -1.79751,-4.495013 -1.75928,-1.723089 -4.58942,-1.723089 h -5.35434 q -1.22384,0 -2.027,0.786628 -0.76489,0.749169 -0.76489,1.947839 0,1.161213 0.80314,1.947839 0.80316,0.786627 1.98875,0.786627 h 5.35434 q 0.80314,0 0.80314,0.749169 0,0.749169 -0.80314,0.749169 h -8.91114 q -1.1856,0 -1.874,-0.674251 -0.68842,-0.674254 -0.68842,-1.835465 V 8.4188485 q 0,-1.1612112 0.68842,-1.8354627 0.6884,-0.6742528 1.874,-0.6742528 h 7.15185 q 1.14736,0 1.83577,0.7117108 0.72666,0.6742515 0.72666,1.7980047 v 1.7605465 q 0,1.198671 0.76491,1.985298 0.80314,0.749169 2.027,0.749169 1.18558,0 1.98874,-0.786627 0.80314,-0.786627 0.80314,-1.94784 V 8.4188485 q 0,-4.1953447 -3.02135,-6.3679352 -2.25647,-1.61071312 -5.12487,-1.61071312 h -7.15185 q -2.86838,0 -5.12484,1.61071312 -3.02138,2.1725905 -3.02138,6.3679352 z M 159.75101,0.25290868 145.29433,28.421656 h -0.95612 v 1.985298 h 2.21821 l 13.73002,-26.895161 5.54555,10.862949 h -7.34306 q -1.2621,0 -2.027,0.749169 -0.76491,0.749169 -0.76491,1.985296 0,1.19867 0.76491,1.985299 0.80314,0.786626 2.027,0.786626 h 10.13497 l 5.39256,10.525822 h 2.21823 v -1.985298 h -0.99438 l -5.35434,-10.525822 h -11.39704 q -0.80316,0 -0.80316,-0.786627 0,-0.749169 0.80316,-0.749169 h 10.59391 L 160.93662,0.25290868 Z M 192.29769,3.2495841 V 25.23769 L 179.63853,0.44020018 h -1.56805 V 27.635029 q 0,0.786627 -0.80315,0.786627 h -0.99437 v 1.94784 h 1.03262 q 1.22385,0 1.98876,-0.749169 0.76488,-0.786627 0.76488,-1.985298 V 5.6469241 l 12.69741,24.7600299 h 1.56805 V 3.2495841 q 0,-0.786627 0.76491,-0.786627 0.80314,0 0.80314,0.786627 V 27.635029 q 0,2.434799 2.75366,2.734467 l 1.07086,0.112367 -0.0383,-2.060214 h -0.99436 q -0.80316,0 -0.80316,-0.786626 V 3.2495841 q 0,-1.2361288 -0.76491,-1.9852977 -0.7649,-0.74916876 -2.02698,-0.74916876 -1.22386,0 -2.027,0.78662676 -0.76491,0.7491689 -0.76491,1.9478397 z"
         id="text1"
         style="font-size:26.4583px;font-family:Neon;-inkscape-font-specification:Neon;fill:#656565;fill-opacity:1;stroke:#656565;stroke-width:0.554247;stroke-dasharray:none;stroke-opacity:1"
         aria-label="OORAGAN"
         inkscape:label="ooragan" /></g><rect
       style="fill:#2d2d2d;fill-opacity:1;stroke:#656565;stroke-width:0.386809"
       id="rect1"
       width="317.61319"
       height="3.6286423"
       x="-0.056594834"
       y="163.11545" /><text
       xml:space="preserve"
       style="font-style:normal;font-variant:normal;font-weight:normal;font-stretch:normal;font-size:26.4583px;font-family:'IBM Plex Sans';-inkscape-font-specification:'IBM Plex Sans';fill:#000000;stroke:none;stroke-width:0.499999;fill-opacity:1"
       x="44.944206"
       y="38.840977"
       id="text2"><tspan
         sodipodi:role="line"
         style="stroke-width:0.5;stroke:none;fill:#000000;fill-opacity:1"
         id="tspan2"
         x="44.944206"
         y="38.840977" /></text><text
       xml:space="preserve"
       style="font-style:normal;font-variant:normal;font-weight:300;font-stretch:normal;font-size:35.27777778px;font-family:'IBM Plex Sans';-inkscape-font-specification:'IBM Plex Sans Light';fill:#000000;fill-opacity:1;stroke:none;stroke-width:0.499999"
       x="5.2533302"
       y="128.31038"
       id="text3"><tspan
         sodipodi:role="line"
         style="stroke-width:0.5;font-size:35.27777778px;-inkscape-font-specification:'IBM Plex Sans Light';font-family:'IBM Plex Sans';font-weight:300;font-style:normal;font-stretch:normal;font-variant:normal"
         x="5.2533302"
         y="128.31038"
         id="tspan4">OORAGAN</tspan></text><text
       xml:space="preserve"
       style="font-style:normal;font-variant:normal;font-weight:300;font-stretch:normal;font-size:10.5833px;font-family:'IBM Plex Sans';-inkscape-font-specification:'IBM Plex Sans Light';fill:#000000;fill-opacity:1;stroke:none;stroke-width:0.499999"
       x="6.6856079"
       y="148.25906"
       id="text5"><tspan
         sodipodi:role="line"
         id="tspan5"
         style="font-size:10.5833px;stroke-width:0.5;-inkscape-font-specification:'IBM Plex Sans Light';font-family:'IBM Plex Sans';font-weight:300;font-style:normal;font-stretch:normal;font-variant:normal"
         x="6.6856079"
         y="148.25906">Object Oriented Resonator Advanced Graphing and ANalysis</tspan></text></g></svg>
